<?xml version="1.0" encoding="UTF-8"?>
<svg width="86pt" version="1.1" xmlns="http://www.w3.org/2000/svg" height="117pt" viewBox="0 0 86 117" xmlns:xlink="http://www.w3.org/1999/xlink">
 <defs>
  <clipPath id="Clip0">
   <path d="M0 0 L84.7314 0 L84.7314 116.399 L0 116.399 L0 0 Z" transform="translate(0.279297, -0.287109)"/>
  </clipPath>
 </defs>
 <g id="Hintergrund">
  <g id="Gruppe1" clip-path="url(#Clip0)">
   <path style="fill:#161413; fill-rule:nonzero;stroke:none;" d="M5.4414 7.042 C5.4414 7.4551 5.36425 7.8242 5.21289 8.1484 C5.05957 8.4726 4.84863 8.7461 4.57617 8.9717 C4.30566 9.1982 3.98828 9.3691 3.61914 9.4805 C3.25293 9.595 2.8584 9.653 2.43359 9.653 C2.13769 9.653 1.8623 9.628 1.61035 9.576 C1.3584 9.5273 1.13183 9.4668 0.933593 9.3916 C0.735353 9.3193 0.570312 9.2451 0.43457 9.168 C0.298828 9.0889 0.206055 9.0234 0.154297 8.9697 C0.100586 8.914 0.063476 8.8437 0.038086 8.7598 C0.011719 8.6758 0 8.5635 0 8.4209 C0 8.3213 0.004883 8.2392 0.014648 8.1719 C0.023437 8.1064 0.038086 8.0527 0.053711 8.0127 C0.072266 7.9707 0.09668 7.9424 0.124023 7.9267 C0.149414 7.9101 0.182617 7.9033 0.219726 7.9033 C0.283203 7.9033 0.374023 7.9404 0.488281 8.0176 C0.604492 8.0967 0.753903 8.1806 0.936523 8.2715 C1.12011 8.3633 1.33984 8.4492 1.59668 8.5283 C1.85351 8.6074 2.15136 8.6474 2.48828 8.6474 C2.74414 8.6474 2.97754 8.6123 3.18945 8.5449 C3.40234 8.4775 3.58398 8.3789 3.73633 8.2558 C3.88965 8.1299 4.00683 7.9756 4.08789 7.7939 C4.16992 7.6113 4.21191 7.4043 4.21191 7.1709 C4.21191 6.9209 4.15332 6.706 4.03906 6.5293 C3.92675 6.3515 3.77539 6.1953 3.58886 6.0605 C3.40234 5.9248 3.18945 5.8037 2.95019 5.6914 C2.71191 5.5791 2.46679 5.4648 2.21484 5.3486 C1.96484 5.2344 1.71972 5.1035 1.48437 4.9629 C1.24609 4.8213 1.03418 4.6553 0.847653 4.4639 C0.661133 4.2724 0.508789 4.0488 0.392578 3.79 C0.27832 3.5332 0.219726 3.2256 0.219726 2.8633 C0.219726 2.4951 0.287109 2.166 0.420898 1.876 C0.555664 1.5869 0.742183 1.3447 0.980473 1.1484 C1.2207 0.9521 1.50488 0.8027 1.83691 0.7002 C2.16601 0.5976 2.52246 0.5469 2.90527 0.5469 C3.10156 0.5469 3.2998 0.5654 3.49804 0.5976 C3.69629 0.6328 3.88281 0.6767 4.05761 0.7353 C4.2334 0.791 4.38965 0.8564 4.52441 0.9267 C4.66211 0.9971 4.75293 1.0547 4.7959 1.0976 C4.83984 1.1416 4.86816 1.1738 4.88183 1.2002 C4.8955 1.2256 4.90722 1.2578 4.91406 1.2949 C4.92383 1.3349 4.93066 1.3818 4.93554 1.4355 C4.94043 1.4912 4.94238 1.5615 4.94238 1.6474 C4.94238 1.7295 4.94043 1.8017 4.93261 1.8672 C4.92578 1.9297 4.91406 1.9834 4.90234 2.0283 C4.88867 2.0703 4.86816 2.1025 4.84375 2.124 C4.81836 2.1426 4.79101 2.1543 4.75781 2.1543 C4.70898 2.1543 4.62988 2.1211 4.52246 2.0586 C4.41504 1.9931 4.28418 1.9228 4.13086 1.8408 C3.97363 1.7617 3.79199 1.6894 3.58008 1.624 C3.36718 1.5566 3.1289 1.5244 2.86523 1.5244 C2.61816 1.5244 2.40332 1.5566 2.22168 1.624 C2.04004 1.6894 1.89062 1.7783 1.77148 1.8877 C1.65234 1.9951 1.56347 2.126 1.50488 2.2773 C1.44433 2.4267 1.41406 2.5859 1.41406 2.7558 C1.41406 3.001 1.47265 3.2129 1.58691 3.3906 C1.70117 3.5683 1.85058 3.7265 2.04199 3.8623 C2.23144 4 2.44629 4.126 2.68554 4.2373 C2.92871 4.3515 3.17383 4.4668 3.42578 4.583 C3.6748 4.7002 3.92285 4.8281 4.16308 4.9658 C4.40527 5.1055 4.62011 5.2685 4.80957 5.458 C4.99804 5.6474 5.15234 5.8711 5.2666 6.1279 C5.38379 6.3867 5.4414 6.6894 5.4414 7.042 Z M11.417 8.414 C11.417 8.4931 11.415 8.5586 11.4102 8.6172 C11.4053 8.6728 11.3965 8.7226 11.3867 8.7598 C11.375 8.7988 11.3613 8.834 11.3447 8.8623 C11.3281 8.8926 11.2939 8.9365 11.2353 8.9931 C11.1797 9.0488 11.0811 9.1211 10.9463 9.2051 C10.8086 9.289 10.6543 9.3642 10.4844 9.4297 C10.3135 9.4971 10.127 9.551 9.9258 9.591 C9.7256 9.632 9.51758 9.653 9.30371 9.653 C8.8623 9.653 8.4707 9.579 8.12988 9.4336 C7.78613 9.2871 7.50195 9.0752 7.2705 8.7949 C7.04004 8.5146 6.86523 8.1689 6.74414 7.7637 C6.625 7.3545 6.56445 6.8838 6.56445 6.3515 C6.56445 5.7451 6.63672 5.2246 6.78613 4.7881 C6.93261 4.3545 7.13574 3.9971 7.39453 3.7197 C7.65136 3.4424 7.95508 3.2344 8.30175 3.1015 C8.65234 2.9658 9.02832 2.8984 9.43457 2.8984 C9.62988 2.8984 9.8213 2.917 10.0059 2.9541 C10.1904 2.9892 10.3603 3.0381 10.5146 3.0967 C10.668 3.1553 10.8086 3.2256 10.9277 3.3017 C11.0488 3.3789 11.1367 3.4443 11.1914 3.5 C11.2471 3.5537 11.2842 3.5986 11.3027 3.6308 C11.3242 3.6611 11.3428 3.6992 11.3545 3.7431 C11.3682 3.7871 11.3779 3.834 11.3828 3.8906 C11.3867 3.9433 11.3887 4.0137 11.3887 4.0957 C11.3887 4.2724 11.3682 4.3965 11.3281 4.4668 C11.2861 4.539 11.2373 4.5732 11.1768 4.5732 C11.1094 4.5732 11.0303 4.5361 10.9414 4.4619 C10.8525 4.3848 10.7402 4.3027 10.6035 4.2119 C10.4678 4.1211 10.3018 4.0371 10.1084 3.9629 C9.915 3.8857 9.68652 3.8476 9.41992 3.8476 C8.8789 3.8476 8.46289 4.0576 8.17383 4.4736 C7.88476 4.8906 7.74023 5.4951 7.74023 6.2881 C7.74023 6.6855 7.77734 7.0332 7.85254 7.332 C7.92675 7.6299 8.03906 7.8799 8.18359 8.081 C8.33008 8.2812 8.50781 8.4306 8.71972 8.5283 C8.93261 8.6269 9.1748 8.6758 9.44824 8.6758 C9.70703 8.6758 9.9355 8.6338 10.1318 8.5517 C10.3271 8.4707 10.498 8.3789 10.6406 8.2812 C10.7852 8.1836 10.9062 8.0947 11.0039 8.0156 C11.1025 7.9365 11.1768 7.8965 11.2334 7.8965 C11.2637 7.8965 11.291 7.9053 11.3145 7.9219 C11.3379 7.9404 11.3564 7.9707 11.373 8.0156 C11.3887 8.0596 11.3984 8.1133 11.4053 8.1787 C11.4131 8.2461 11.417 8.3232 11.417 8.414 Z M18.2119 9.3525 C18.2119 9.3877 18.2021 9.4199 18.1836 9.4433 C18.165 9.4687 18.1377 9.4902 18.0947 9.5088 C18.0527 9.5273 17.9971 9.541 17.9248 9.551 C17.8506 9.56 17.7588 9.564 17.6514 9.564 C17.5371 9.564 17.4443 9.56 17.3691 9.551 C17.2969 9.541 17.2412 9.5273 17.1992 9.5088 C17.1592 9.4902 17.1289 9.4687 17.1103 9.4433 C17.0918 9.4199 17.083 9.3877 17.083 9.3525 L17.083 5.75 C17.083 5.3974 17.0566 5.1152 17.001 4.9023 C16.9473 4.6885 16.8682 4.5039 16.7627 4.3476 C16.6582 4.1933 16.5225 4.0742 16.3545 3.9931 C16.1885 3.9111 15.9971 3.8691 15.7783 3.8691 C15.4961 3.8691 15.2139 3.9687 14.9316 4.1699 C14.6465 4.3711 14.3506 4.665 14.042 5.0517 L14.042 9.3525 C14.042 9.3877 14.0332 9.4199 14.0146 9.4433 C13.9961 9.4687 13.9648 9.4902 13.9258 9.5088 C13.8838 9.5273 13.8271 9.541 13.7549 9.551 C13.6807 9.56 13.5869 9.564 13.4727 9.564 C13.3662 9.564 13.2744 9.56 13.2002 9.551 C13.1279 9.541 13.0693 9.5273 13.0273 9.5088 C12.9834 9.4902 12.9531 9.4687 12.9385 9.4433 C12.9228 9.4199 12.9131 9.3877 12.9131 9.3525 L12.9131 0.2197 C12.9131 0.1826 12.9228 0.1494 12.9385 0.124 C12.9531 0.0957 12.9834 0.0723 13.0273 0.0537 C13.0693 0.0381 13.1279 0.0234 13.2002 0.0146 C13.2744 0.0049 13.3662 0 13.4727 0 C13.5869 0 13.6807 0.0049 13.7549 0.0146 C13.8271 0.0234 13.8838 0.0381 13.9258 0.0537 C13.9648 0.0723 13.9961 0.0957 14.0146 0.124 C14.0332 0.1494 14.042 0.1826 14.042 0.2197 L14.042 3.9043 C14.3643 3.5615 14.6914 3.3066 15.0205 3.1406 C15.3467 2.9756 15.6777 2.8916 16.0098 2.8916 C16.4199 2.8916 16.7656 2.9609 17.0449 3.1015 C17.3252 3.2392 17.5537 3.4258 17.7266 3.6562 C17.8994 3.8906 18.0225 4.1631 18.0977 4.4736 C18.1748 4.7861 18.2119 5.164 18.2119 5.6055 L18.2119 9.3525 Z M24.9033 9.3594 C24.9033 9.4131 24.8848 9.4551 24.8477 9.4805 C24.8125 9.5088 24.7617 9.5293 24.6982 9.544 C24.6328 9.558 24.54 9.564 24.418 9.564 C24.2988 9.564 24.2041 9.558 24.1338 9.544 C24.0635 9.5293 24.0127 9.5088 23.9795 9.4805 C23.9473 9.4551 23.9326 9.4131 23.9326 9.3594 L23.9326 8.7431 C23.6621 9.0303 23.3643 9.2539 23.0322 9.4131 C22.7031 9.571 22.3535 9.653 21.9844 9.653 C21.6602 9.653 21.3662 9.611 21.1055 9.5244 C20.8437 9.4414 20.6201 9.3193 20.4355 9.1611 C20.251 9 20.1064 8.8037 20.0039 8.5732 C19.9033 8.3398 19.8516 8.0762 19.8516 7.7793 C19.8516 7.4316 19.9219 7.1328 20.0625 6.8769 C20.2041 6.6221 20.4072 6.4101 20.6709 6.2422 C20.9346 6.0713 21.2588 5.9453 21.6416 5.8613 C22.0244 5.7773 22.4561 5.7353 22.9346 5.7353 L23.7812 5.7353 L23.7812 5.2568 C23.7812 5.0195 23.7559 4.8096 23.707 4.6269 C23.6553 4.4453 23.5762 4.2939 23.4639 4.1748 C23.3516 4.0537 23.207 3.9629 23.0303 3.8994 C22.8525 3.8389 22.6338 3.8086 22.375 3.8086 C22.0947 3.8086 21.8467 3.8408 21.625 3.9062 C21.4033 3.9736 21.21 4.0459 21.0449 4.126 C20.876 4.2051 20.7383 4.2773 20.627 4.3447 C20.5146 4.4101 20.4326 4.4433 20.377 4.4433 C20.3418 4.4433 20.3096 4.4336 20.2812 4.417 C20.2529 4.3984 20.2305 4.3711 20.209 4.333 C20.1904 4.2978 20.1738 4.2519 20.165 4.1933 C20.1553 4.1377 20.1504 4.0742 20.1504 4.0068 C20.1504 3.8926 20.1602 3.8017 20.1768 3.7363 C20.1924 3.6709 20.2305 3.6074 20.293 3.5469 C20.3535 3.4883 20.459 3.4189 20.6103 3.3398 C20.7598 3.2598 20.9326 3.1875 21.1289 3.1201 C21.3242 3.0547 21.5391 3.001 21.7725 2.957 C22.0039 2.9121 22.2393 2.8916 22.4775 2.8916 C22.918 2.8916 23.2939 2.9424 23.6035 3.043 C23.9141 3.1435 24.1641 3.29 24.3555 3.4844 C24.5469 3.6777 24.6865 3.918 24.7725 4.2051 C24.8594 4.4922 24.9033 4.8252 24.9033 5.208 L24.9033 9.3594 Z M23.7812 6.5498 L22.8174 6.5498 C22.5078 6.5498 22.2393 6.5762 22.0107 6.6269 C21.7842 6.6806 21.5947 6.7578 21.4434 6.8603 C21.2939 6.9629 21.1816 7.0869 21.1123 7.2295 C21.042 7.374 21.0068 7.5371 21.0068 7.7236 C21.0068 8.043 21.1074 8.2978 21.3105 8.4863 C21.5137 8.6758 21.7978 8.7715 22.1621 8.7715 C22.458 8.7715 22.7314 8.6963 22.9853 8.5449 C23.2373 8.3955 23.5039 8.164 23.7812 7.8545 L23.7812 6.5498 Z M31.3975 8.414 C31.3975 8.4931 31.3945 8.5586 31.3906 8.6172 C31.3857 8.6728 31.376 8.7226 31.3672 8.7598 C31.3555 8.7988 31.3418 8.834 31.3252 8.8623 C31.3086 8.8926 31.2734 8.9365 31.2148 8.9931 C31.1592 9.0488 31.0615 9.1211 30.9258 9.2051 C30.7881 9.289 30.6348 9.3642 30.4639 9.4297 C30.2939 9.4971 30.1064 9.551 29.9062 9.591 C29.7061 9.632 29.498 9.653 29.2832 9.653 C28.8428 9.653 28.4502 9.579 28.1094 9.4336 C27.7666 9.2871 27.4824 9.0752 27.251 8.7949 C27.0195 8.5146 26.8447 8.1689 26.7236 7.7637 C26.6045 7.3545 26.5439 6.8838 26.5439 6.3515 C26.5439 5.7451 26.6162 5.2246 26.7656 4.7881 C26.9131 4.3545 27.1162 3.9971 27.375 3.7197 C27.6318 3.4424 27.9346 3.2344 28.2822 3.1015 C28.6318 2.9658 29.0078 2.8984 29.4141 2.8984 C29.6103 2.8984 29.8018 2.917 29.9853 2.9541 C30.1699 2.9892 30.3398 3.0381 30.4941 3.0967 C30.6484 3.1553 30.7881 3.2256 30.9072 3.3017 C31.0283 3.3789 31.1172 3.4443 31.1709 3.5 C31.2266 3.5537 31.2646 3.5986 31.2832 3.6308 C31.3037 3.6611 31.3223 3.6992 31.334 3.7431 C31.3486 3.7871 31.3574 3.834 31.3623 3.8906 C31.3672 3.9433 31.3691 4.0137 31.3691 4.0957 C31.3691 4.2724 31.3486 4.3965 31.3086 4.4668 C31.2666 4.539 31.2178 4.5732 31.1572 4.5732 C31.0898 4.5732 31.0098 4.5361 30.9209 4.4619 C30.833 4.3848 30.7207 4.3027 30.583 4.2119 C30.4473 4.1211 30.2822 4.0371 30.0879 3.9629 C29.8945 3.8857 29.666 3.8476 29.4004 3.8476 C28.8584 3.8476 28.4434 4.0576 28.1543 4.4736 C27.8643 4.8906 27.7197 5.4951 27.7197 6.2881 C27.7197 6.6855 27.7568 7.0332 27.832 7.332 C27.9062 7.6299 28.0186 7.8799 28.1631 8.081 C28.3105 8.2812 28.4873 8.4306 28.7002 8.5283 C28.9121 8.6269 29.1553 8.6758 29.4277 8.6758 C29.6875 8.6758 29.916 8.6338 30.1113 8.5517 C30.3076 8.4707 30.4775 8.3789 30.6201 8.2812 C30.7646 8.1836 30.8867 8.0947 30.9844 8.0156 C31.082 7.9365 31.1572 7.8965 31.2129 7.8965 C31.2432 7.8965 31.2715 7.9053 31.2949 7.9219 C31.3174 7.9404 31.3369 7.9707 31.3525 8.0156 C31.3691 8.0596 31.3789 8.1133 31.3857 8.1787 C31.3926 8.2461 31.3975 8.3232 31.3975 8.414 Z M38.1914 9.3525 C38.1914 9.3877 38.1826 9.4199 38.1641 9.4433 C38.1455 9.4687 38.1172 9.4902 38.0752 9.5088 C38.0332 9.5273 37.9775 9.541 37.9053 9.551 C37.8301 9.56 37.7393 9.564 37.6318 9.564 C37.5176 9.564 37.4238 9.56 37.3496 9.551 C37.2773 9.541 37.2217 9.5273 37.1797 9.5088 C37.1396 9.4902 37.1094 9.4687 37.0908 9.4433 C37.0723 9.4199 37.0625 9.3877 37.0625 9.3525 L37.0625 5.75 C37.0625 5.3974 37.0371 5.1152 36.9805 4.9023 C36.9277 4.6885 36.8477 4.5039 36.7432 4.3476 C36.6377 4.1933 36.5029 4.0742 36.335 3.9931 C36.1689 3.9111 35.9775 3.8691 35.7588 3.8691 C35.4756 3.8691 35.1934 3.9687 34.9111 4.1699 C34.627 4.3711 34.3301 4.665 34.0225 5.0517 L34.0225 9.3525 C34.0225 9.3877 34.0127 9.4199 33.9941 9.4433 C33.9756 9.4687 33.9453 9.4902 33.9053 9.5088 C33.8633 9.5273 33.8076 9.541 33.7353 9.551 C33.6611 9.56 33.5674 9.564 33.4531 9.564 C33.3457 9.564 33.2549 9.56 33.1797 9.551 C33.1074 9.541 33.0488 9.5273 33.0068 9.5088 C32.9629 9.4902 32.9326 9.4687 32.9189 9.4433 C32.9023 9.4199 32.8926 9.3877 32.8926 9.3525 L32.8926 0.2197 C32.8926 0.1826 32.9023 0.1494 32.9189 0.124 C32.9326 0.0957 32.9629 0.0723 33.0068 0.0537 C33.0488 0.0381 33.1074 0.0234 33.1797 0.0146 C33.2549 0.0049 33.3457 0 33.4531 0 C33.5674 0 33.6611 0.0049 33.7353 0.0146 C33.8076 0.0234 33.8633 0.0381 33.9053 0.0537 C33.9453 0.0723 33.9756 0.0957 33.9941 0.124 C34.0127 0.1494 34.0225 0.1826 34.0225 0.2197 L34.0225 3.9043 C34.3447 3.5615 34.6709 3.3066 35 3.1406 C35.3262 2.9756 35.6582 2.8916 35.9893 2.8916 C36.3994 2.8916 36.7451 2.9609 37.0254 3.1015 C37.3057 3.2392 37.5342 3.4258 37.707 3.6562 C37.8789 3.8906 38.0029 4.1631 38.0771 4.4736 C38.1543 4.7861 38.1914 5.164 38.1914 5.6055 L38.1914 9.3525 Z M45.0586 3.1855 C45.0586 3.2041 45.0586 3.2226 45.0566 3.2431 C45.0537 3.2646 45.0498 3.2861 45.0449 3.3086 C45.042 3.332 45.0352 3.3555 45.0283 3.3838 C45.0215 3.4121 45.0146 3.4424 45.0049 3.4726 L42.9072 9.3174 C42.8887 9.3691 42.8633 9.4082 42.835 9.4414 C42.8047 9.4736 42.7607 9.4971 42.7021 9.5156 C42.6416 9.5342 42.5664 9.546 42.4756 9.553 C42.3848 9.56 42.2705 9.564 42.1328 9.564 C41.9971 9.564 41.8828 9.56 41.792 9.551 C41.7012 9.541 41.626 9.5273 41.5703 9.5088 C41.5117 9.4902 41.4678 9.4668 41.4375 9.4336 C41.4053 9.4014 41.3789 9.3642 41.3603 9.3174 L39.2695 3.4726 C39.251 3.4189 39.2373 3.3701 39.2256 3.3301 C39.2139 3.2881 39.207 3.2578 39.2041 3.2363 C39.2021 3.2158 39.2021 3.1992 39.2021 3.1855 C39.2021 3.1504 39.2119 3.1181 39.2275 3.0898 C39.2471 3.0615 39.2773 3.041 39.3213 3.0244 C39.3633 3.0078 39.4219 2.999 39.4912 2.9941 C39.5615 2.9892 39.6504 2.9873 39.7549 2.9873 C39.8877 2.9873 39.9932 2.9912 40.0723 2.999 C40.1514 3.0058 40.2148 3.0176 40.2568 3.0361 C40.3008 3.0547 40.3311 3.0762 40.3525 3.1035 C40.373 3.1318 40.3926 3.164 40.4111 3.206 L42.1465 8.2793 L42.1748 8.3603 L42.1953 8.2793 L43.9111 3.206 C43.9199 3.164 43.9365 3.1318 43.96 3.1035 C43.9805 3.0762 44.0156 3.0547 44.0576 3.0361 C44.1025 3.0176 44.1602 3.0058 44.2353 2.999 C44.3125 2.9912 44.4102 2.9873 44.5342 2.9873 C44.6387 2.9873 44.7256 2.9892 44.793 2.9941 C44.8603 2.999 44.9141 3.0107 44.9541 3.0293 C44.9932 3.0478 45.0195 3.0683 45.0352 3.0947 C45.0518 3.1181 45.0586 3.1504 45.0586 3.1855 Z M51.4492 6.0088 C51.4492 6.1855 51.4053 6.3144 51.3164 6.3887 C51.2275 6.4639 51.1279 6.501 51.0137 6.501 L46.9785 6.501 C46.9785 6.8437 47.0137 7.1494 47.082 7.4248 C47.1494 7.6982 47.2637 7.9316 47.4248 8.1269 C47.583 8.3232 47.791 8.4746 48.0449 8.5801 C48.3018 8.6846 48.6123 8.7363 48.9834 8.7363 C49.2754 8.7363 49.5342 8.7129 49.7627 8.664 C49.9893 8.6172 50.1875 8.5635 50.3525 8.5029 C50.5186 8.4443 50.6562 8.3906 50.7637 8.3437 C50.8711 8.2949 50.9502 8.2715 51.0059 8.2715 C51.0361 8.2715 51.0664 8.2793 51.0908 8.2949 C51.1162 8.3115 51.1348 8.3349 51.1484 8.3672 C51.1631 8.4004 51.1738 8.4443 51.1816 8.501 C51.1855 8.5566 51.1904 8.6269 51.1904 8.708 C51.1904 8.7685 51.1885 8.8203 51.1836 8.8623 C51.1787 8.9062 51.1738 8.9443 51.167 8.9785 C51.1602 9.0137 51.1484 9.0439 51.1318 9.0723 C51.1162 9.0976 51.0947 9.126 51.0713 9.1494 C51.0459 9.1748 50.9717 9.2168 50.8477 9.2724 C50.7266 9.3291 50.5654 9.3848 50.3691 9.4414 C50.1738 9.4941 49.9473 9.544 49.6904 9.588 C49.4336 9.63 49.1582 9.653 48.8662 9.653 C48.3603 9.653 47.917 9.581 47.5361 9.4414 C47.1562 9.2988 46.8369 9.0889 46.5752 8.8105 C46.3164 8.5332 46.1201 8.1855 45.9873 7.7656 C45.8564 7.3457 45.7891 6.8584 45.7891 6.3027 C45.7891 5.7754 45.8594 5.2988 45.9941 4.8769 C46.1318 4.457 46.3281 4.0976 46.5869 3.8037 C46.8437 3.5098 47.1543 3.2861 47.5205 3.1269 C47.8848 2.9707 48.293 2.8916 48.7432 2.8916 C49.2256 2.8916 49.6367 2.9687 49.9775 3.125 C50.3154 3.2783 50.5957 3.4883 50.8145 3.75 C51.0342 4.0117 51.1934 4.3193 51.2959 4.6719 C51.3984 5.0264 51.4492 5.4023 51.4492 5.8037 L51.4492 6.0088 Z M50.3154 5.6748 C50.3291 5.082 50.1992 4.6162 49.9209 4.2793 C49.6455 3.9414 49.2373 3.7734 48.6963 3.7734 C48.416 3.7734 48.1738 3.8271 47.9639 3.9316 C47.7539 4.0351 47.5781 4.1748 47.4385 4.3476 C47.2959 4.5195 47.1865 4.7226 47.1094 4.9521 C47.0322 5.1826 46.9883 5.4228 46.9785 5.6748 L50.3154 5.6748 Z M56.7598 3.6025 C56.7598 3.7031 56.7578 3.7871 56.7529 3.8555 C56.749 3.9248 56.7393 3.9785 56.7275 4.0156 C56.7139 4.0556 56.6953 4.084 56.6768 4.1045 C56.6553 4.126 56.627 4.1348 56.5898 4.1348 C56.5527 4.1348 56.5078 4.126 56.457 4.1045 C56.4033 4.084 56.3447 4.0654 56.2793 4.0439 C56.2119 4.0234 56.1396 4.0039 56.0576 3.9853 C55.9736 3.9668 55.8848 3.958 55.79 3.958 C55.6758 3.958 55.5654 3.9814 55.4561 4.0273 C55.3467 4.0723 55.2295 4.1465 55.1103 4.2519 C54.9893 4.3564 54.8633 4.4971 54.7305 4.6689 C54.5996 4.8418 54.4521 5.0547 54.2939 5.3037 L54.2939 9.3525 C54.2939 9.3877 54.2852 9.4199 54.2656 9.4433 C54.2471 9.4687 54.2168 9.4902 54.1777 9.5088 C54.1357 9.5273 54.0791 9.541 54.0068 9.551 C53.9326 9.56 53.8389 9.564 53.7246 9.564 C53.6172 9.564 53.5264 9.56 53.4512 9.551 C53.3789 9.541 53.3213 9.5273 53.2793 9.5088 C53.2344 9.4902 53.2041 9.4687 53.1904 9.4433 C53.1738 9.4199 53.165 9.3877 53.165 9.3525 L53.165 3.1992 C53.165 3.1621 53.1719 3.1318 53.1855 3.1064 C53.1992 3.083 53.2275 3.0596 53.2676 3.0381 C53.3096 3.0176 53.3603 3.0058 53.4258 2.999 C53.4893 2.9912 53.5732 2.9873 53.6777 2.9873 C53.7783 2.9873 53.8623 2.9912 53.9277 2.999 C53.9932 3.0058 54.0439 3.0176 54.082 3.0381 C54.1162 3.0596 54.1445 3.083 54.1611 3.1064 C54.1748 3.1318 54.1846 3.1621 54.1846 3.1992 L54.1846 4.0957 C54.3525 3.8476 54.5107 3.6474 54.6582 3.4931 C54.8076 3.3398 54.9473 3.2158 55.0801 3.1269 C55.2109 3.0381 55.3418 2.9775 55.4717 2.9424 C55.6025 2.9101 55.7334 2.8916 55.8643 2.8916 C55.9248 2.8916 55.9922 2.8965 56.0674 2.9033 C56.1416 2.9101 56.2217 2.9219 56.3027 2.9404 C56.3848 2.959 56.459 2.9775 56.5244 3.001 C56.5918 3.0244 56.6387 3.0478 56.665 3.0683 C56.6924 3.0918 56.7109 3.1133 56.7207 3.1338 C56.7295 3.1553 56.7373 3.1806 56.7441 3.2129 C56.751 3.2461 56.7559 3.293 56.7578 3.3535 C56.7598 3.414 56.7598 3.498 56.7598 3.6025 Z M63.7061 6.1933 C63.7061 6.7275 63.6484 7.2051 63.5312 7.6328 C63.417 8.0596 63.2441 8.4209 63.0205 8.7226 C62.7939 9.0234 62.5166 9.2539 62.1895 9.4131 C61.8613 9.571 61.4853 9.653 61.0605 9.653 C60.8643 9.653 60.6846 9.632 60.5166 9.595 C60.3516 9.556 60.1875 9.4922 60.0293 9.4062 C59.8682 9.3193 59.71 9.2099 59.5508 9.0791 C59.3896 8.9463 59.2217 8.7871 59.0449 8.5986 L59.0449 9.3525 C59.0449 9.3877 59.0352 9.4199 59.0166 9.4482 C58.998 9.4736 58.9697 9.4971 58.9277 9.5137 C58.8877 9.5273 58.8369 9.541 58.7744 9.551 C58.7129 9.56 58.6338 9.564 58.5381 9.564 C58.4473 9.564 58.3701 9.56 58.3076 9.551 C58.2422 9.541 58.1904 9.5273 58.1484 9.5137 C58.1094 9.4971 58.0811 9.4736 58.0674 9.4482 C58.0527 9.4199 58.0459 9.3877 58.0459 9.3525 L58.0459 0.2197 C58.0459 0.1826 58.0557 0.1494 58.0713 0.124 C58.0859 0.0957 58.1162 0.0723 58.1602 0.0537 C58.2021 0.0381 58.2607 0.0234 58.333 0.0146 C58.4072 0.0049 58.499 0 58.6055 0 C58.7197 0 58.8135 0.0049 58.8877 0.0146 C58.9609 0.0234 59.0166 0.0381 59.0586 0.0537 C59.0986 0.0723 59.1289 0.0957 59.1475 0.124 C59.166 0.1494 59.1758 0.1826 59.1758 0.2197 L59.1758 3.9043 C59.3574 3.7168 59.5322 3.5586 59.7051 3.4326 C59.875 3.3047 60.043 3.2012 60.207 3.1201 C60.3701 3.041 60.5352 2.9824 60.6992 2.9473 C60.8623 2.9101 61.0371 2.8916 61.2187 2.8916 C61.665 2.8916 62.0478 2.9795 62.3623 3.1572 C62.6797 3.3369 62.9365 3.5752 63.1348 3.874 C63.333 4.1728 63.4775 4.5195 63.5684 4.9219 C63.6621 5.3232 63.7061 5.7471 63.7061 6.1933 Z M62.5166 6.3232 C62.5166 6.0088 62.4932 5.7031 62.4463 5.4062 C62.3975 5.1103 62.3135 4.8486 62.1963 4.6201 C62.0781 4.3945 61.9189 4.2099 61.7227 4.0723 C61.5273 3.9316 61.2842 3.8623 60.9932 3.8623 C60.8457 3.8623 60.7031 3.8828 60.5615 3.9248 C60.4209 3.9648 60.2764 4.0322 60.1318 4.1279 C59.9853 4.2236 59.833 4.3476 59.6768 4.499 C59.5205 4.6484 59.3525 4.8369 59.1758 5.0664 L59.1758 7.5205 C59.4834 7.8984 59.7793 8.1855 60.0645 8.3838 C60.3467 8.582 60.6406 8.6826 60.9443 8.6826 C61.2285 8.6826 61.4687 8.6123 61.6699 8.4775 C61.8701 8.3398 62.0332 8.1601 62.1572 7.9336 C62.2832 7.707 62.374 7.4551 62.4326 7.1748 C62.4883 6.8955 62.5166 6.6103 62.5166 6.3232 Z M70.0361 9.3594 C70.0361 9.4131 70.0176 9.4551 69.9805 9.4805 C69.9453 9.5088 69.8945 9.5293 69.8311 9.544 C69.7656 9.558 69.6728 9.564 69.5508 9.564 C69.4326 9.564 69.3369 9.558 69.2666 9.544 C69.1963 9.5293 69.1455 9.5088 69.1123 9.4805 C69.0801 9.4551 69.0664 9.4131 69.0664 9.3594 L69.0664 8.7431 C68.7949 9.0303 68.4971 9.2539 68.165 9.4131 C67.8359 9.571 67.4863 9.653 67.1182 9.653 C66.793 9.653 66.499 9.611 66.2383 9.5244 C65.9766 9.4414 65.7529 9.3193 65.5684 9.1611 C65.3838 9 65.2393 8.8037 65.1367 8.5732 C65.0361 8.3398 64.9853 8.0762 64.9853 7.7793 C64.9853 7.4316 65.0547 7.1328 65.1953 6.8769 C65.3369 6.6221 65.54 6.4101 65.8037 6.2422 C66.0674 6.0713 66.3916 5.9453 66.7744 5.8613 C67.1572 5.7773 67.5889 5.7353 68.0674 5.7353 L68.9141 5.7353 L68.9141 5.2568 C68.9141 5.0195 68.8887 4.8096 68.8398 4.6269 C68.7881 4.4453 68.709 4.2939 68.5967 4.1748 C68.4853 4.0537 68.3398 3.9629 68.1631 3.8994 C67.9853 3.8389 67.7666 3.8086 67.5078 3.8086 C67.2275 3.8086 66.9795 3.8408 66.7578 3.9062 C66.5361 3.9736 66.3428 4.0459 66.1777 4.126 C66.0098 4.2051 65.8721 4.2773 65.7598 4.3447 C65.6475 4.4101 65.5664 4.4433 65.5098 4.4433 C65.4746 4.4433 65.4424 4.4336 65.4141 4.417 C65.3867 4.3984 65.3633 4.3711 65.3418 4.333 C65.3232 4.2978 65.3066 4.2519 65.2978 4.1933 C65.2881 4.1377 65.2842 4.0742 65.2842 4.0068 C65.2842 3.8926 65.293 3.8017 65.3096 3.7363 C65.3252 3.6709 65.3633 3.6074 65.4258 3.5469 C65.4863 3.4883 65.5918 3.4189 65.7432 3.3398 C65.8926 3.2598 66.0654 3.1875 66.2617 3.1201 C66.457 3.0547 66.6719 3.001 66.9053 2.957 C67.1367 2.9121 67.3721 2.8916 67.6103 2.8916 C68.0508 2.8916 68.4268 2.9424 68.7373 3.043 C69.0469 3.1435 69.2969 3.29 69.4883 3.4844 C69.6797 3.6777 69.8193 3.918 69.9062 4.2051 C69.9922 4.4922 70.0361 4.8252 70.0361 5.208 L70.0361 9.3594 Z M68.9141 6.5498 L67.9502 6.5498 C67.6406 6.5498 67.3721 6.5762 67.1436 6.6269 C66.917 6.6806 66.7275 6.7578 66.5762 6.8603 C66.4268 6.9629 66.3154 7.0869 66.2451 7.2295 C66.1748 7.374 66.1396 7.5371 66.1396 7.7236 C66.1396 8.043 66.2402 8.2978 66.4434 8.4863 C66.6465 8.6758 66.9307 8.7715 67.2949 8.7715 C67.5918 8.7715 67.8643 8.6963 68.1182 8.5449 C68.3711 8.3955 68.6367 8.164 68.9141 7.8545 L68.9141 6.5498 Z" transform="translate(0.279297, 90.459)"/>
   <path style="fill:#161413; fill-rule:nonzero;stroke:none;" d="M57.3819 9.3242 C57.3819 9.3594 57.3721 9.3916 57.3536 9.415 C57.335 9.4404 57.3077 9.4619 57.2647 9.4805 C57.2227 9.499 57.167 9.5127 57.0948 9.5227 C57.0205 9.5317 56.9287 9.5357 56.8213 9.5357 C56.7071 9.5357 56.6143 9.5317 56.5391 9.5227 C56.4668 9.5127 56.4112 9.499 56.3692 9.4805 C56.3291 9.4619 56.2989 9.4404 56.2803 9.415 C56.2618 9.3916 56.253 9.3594 56.253 9.3242 L56.253 5.7217 C56.253 5.3691 56.2266 5.0869 56.1709 4.874 C56.1172 4.6602 56.0381 4.4756 55.9327 4.3193 C55.8282 4.165 55.6924 4.0459 55.5244 3.9648 C55.3584 3.8828 55.167 3.8408 54.9483 3.8408 C54.6661 3.8408 54.3838 3.9404 54.1016 4.1416 C53.8164 4.3428 53.5205 4.6367 53.2119 5.0234 L53.2119 9.3242 C53.2119 9.3594 53.2032 9.3916 53.1846 9.415 C53.1651 9.4404 53.1348 9.4619 53.0957 9.4805 C53.0537 9.499 52.9971 9.5127 52.9248 9.5227 C52.8506 9.5317 52.7569 9.5357 52.6426 9.5357 C52.5362 9.5357 52.4444 9.5317 52.3702 9.5227 C52.2979 9.5127 52.2393 9.499 52.1973 9.4805 C52.1534 9.4619 52.1231 9.4404 52.1084 9.415 C52.0928 9.3916 52.083 9.3594 52.083 9.3242 L52.083 3.1709 C52.083 3.1338 52.0899 3.1035 52.1036 3.0781 C52.1182 3.0547 52.1455 3.0313 52.1856 3.0098 C52.2276 2.9893 52.2793 2.9775 52.3448 2.9707 C52.4073 2.9629 52.4912 2.959 52.5967 2.959 C52.6963 2.959 52.7803 2.9629 52.8457 2.9707 C52.9112 2.9775 52.9629 2.9893 53 3.0098 C53.0352 3.0313 53.0625 3.0547 53.0791 3.0781 C53.0928 3.1035 53.1026 3.1338 53.1026 3.1709 L53.1026 3.9854 C53.4483 3.5977 53.793 3.3135 54.1387 3.1338 C54.4815 2.9541 54.8291 2.8633 55.1797 2.8633 C55.5899 2.8633 55.9356 2.9326 56.2149 3.0732 C56.4952 3.2109 56.7237 3.3975 56.8965 3.6279 C57.0694 3.8623 57.1924 4.1348 57.2676 4.4453 C57.3448 4.7578 57.3819 5.1338 57.3819 5.5693 L57.3819 9.3242 Z M64.708 9.3242 C64.708 9.3594 64.7012 9.3916 64.6846 9.4199 C64.669 9.4453 64.6407 9.4688 64.6036 9.4854 C64.5635 9.499 64.5127 9.5127 64.4493 9.5227 C64.3838 9.5317 64.3067 9.5357 64.2159 9.5357 C64.1202 9.5357 64.0411 9.5317 63.9776 9.5227 C63.9121 9.5127 63.8614 9.499 63.8194 9.4854 C63.7793 9.4688 63.7491 9.4453 63.7305 9.4199 C63.7119 9.3916 63.7032 9.3594 63.7032 9.3242 L63.7032 8.5098 C63.3809 8.8623 63.045 9.1348 62.6944 9.3311 C62.3467 9.5277 61.9639 9.6247 61.5508 9.6247 C61.0987 9.6247 60.7139 9.5357 60.3936 9.3613 C60.0772 9.1865 59.8174 8.9482 59.6192 8.6494 C59.4209 8.3506 59.2764 8.001 59.1856 7.5977 C59.0948 7.1934 59.0479 6.7686 59.0479 6.3232 C59.0479 5.794 59.1065 5.3154 59.2178 4.8906 C59.3321 4.4639 59.503 4.0996 59.7246 3.8008 C59.9483 3.5 60.2256 3.2695 60.5547 3.1055 C60.8868 2.9443 61.2666 2.8633 61.7002 2.8633 C62.0606 2.8633 62.3887 2.9424 62.6875 3.0986 C62.9864 3.2578 63.2823 3.4883 63.5743 3.794 L63.5743 0.2168 C63.5743 0.1865 63.5811 0.1563 63.5977 0.126 C63.6143 0.0957 63.6446 0.0723 63.6905 0.0586 C63.7354 0.042 63.794 0.0283 63.8633 0.0166 C63.9336 0.0049 64.0244 0 64.1338 0 C64.2491 0 64.3418 0.0049 64.4141 0.0166 C64.4864 0.0283 64.545 0.042 64.585 0.0586 C64.627 0.0723 64.6573 0.0957 64.6778 0.126 C64.6993 0.1563 64.708 0.1865 64.708 0.2168 L64.708 9.3242 Z M63.5743 4.9961 C63.2686 4.6182 62.9727 4.3311 62.6875 4.1318 C62.4034 3.9346 62.1065 3.834 61.7969 3.834 C61.5098 3.834 61.2647 3.9033 61.0664 4.0391 C60.8653 4.1768 60.7022 4.3565 60.5762 4.5801 C60.4502 4.8018 60.3594 5.0566 60.3028 5.3389 C60.2452 5.6211 60.2168 5.9082 60.2168 6.1992 C60.2168 6.5098 60.2403 6.8135 60.2891 7.1094 C60.336 7.4033 60.42 7.667 60.5391 7.8984 C60.6582 8.1289 60.8135 8.3135 61.0098 8.4512 C61.2061 8.5908 61.4532 8.6611 61.7471 8.6611 C61.8994 8.6611 62.044 8.6406 62.1836 8.5986 C62.3213 8.5586 62.4639 8.4883 62.6104 8.3926 C62.7559 8.2969 62.9092 8.1738 63.0684 8.0215 C63.2266 7.8682 63.3965 7.6816 63.5743 7.457 L63.5743 4.9961 Z M5.4414 23.0137 C5.4414 23.4267 5.3643 23.7957 5.2129 24.1197 C5.0586 24.4447 4.8487 24.7167 4.5762 24.9437 C4.3047 25.1697 3.9873 25.3397 3.6192 25.4517 C3.253 25.5667 2.8584 25.6247 2.4336 25.6247 C2.1377 25.6247 1.8623 25.5987 1.6104 25.5477 C1.3584 25.4987 1.1319 25.4387 0.9336 25.3637 C0.7354 25.2907 0.5694 25.2167 0.4336 25.1397 C0.2989 25.0607 0.2051 24.9947 0.1543 24.9417 C0.1006 24.8857 0.0625 24.8157 0.0371 24.7317 C0.0118 24.6477 0 24.5347 0 24.3927 C0 24.2927 0.0049 24.2107 0.0147 24.1437 C0.0235 24.0777 0.0371 24.0247 0.0537 23.9847 C0.0723 23.9427 0.0957 23.9137 0.1241 23.8987 C0.1494 23.8817 0.1817 23.8747 0.2198 23.8747 C0.2823 23.8747 0.3731 23.9117 0.4873 23.9897 C0.6045 24.0687 0.7539 24.1527 0.9356 24.2427 C1.1202 24.3347 1.3399 24.4207 1.5957 24.4997 C1.8526 24.5787 2.1514 24.6187 2.4873 24.6187 C2.7442 24.6187 2.9776 24.5837 3.1895 24.5167 C3.4024 24.4487 3.584 24.3507 3.7354 24.2277 C3.8897 24.1017 4.0059 23.9477 4.0879 23.7657 C4.17 23.5827 4.2119 23.3757 4.2119 23.1427 C4.2119 22.8927 4.1534 22.6777 4.0391 22.4997 C3.9268 22.3237 3.7754 22.1667 3.5889 22.0317 C3.4024 21.8967 3.1895 21.7747 2.9493 21.6627 C2.711 21.5507 2.4668 21.4367 2.2149 21.3207 C1.9649 21.2057 1.7198 21.0757 1.4844 20.9347 C1.2461 20.7927 1.0342 20.6267 0.8467 20.4357 C0.6602 20.2437 0.5088 20.0207 0.3916 19.7617 C0.2784 19.5047 0.2198 19.1967 0.2198 18.8347 C0.2198 18.4657 0.2871 18.1377 0.42 17.8477 C0.5557 17.5587 0.7422 17.3157 0.9795 17.1197 C1.2207 16.9237 1.5049 16.7747 1.836 16.6717 C2.1651 16.5697 2.5225 16.5177 2.9053 16.5177 C3.1016 16.5177 3.2989 16.5367 3.4981 16.5697 C3.6963 16.6047 3.8828 16.6487 4.0577 16.7067 C4.2325 16.7627 4.3887 16.8277 4.5244 16.8987 C4.6621 16.9687 4.753 17.0267 4.795 17.0687 C4.8389 17.1137 4.8672 17.1457 4.8809 17.1707 C4.8955 17.1977 4.9073 17.2297 4.9141 17.2667 C4.9229 17.3067 4.9307 17.3537 4.9346 17.4077 C4.9395 17.4627 4.9424 17.5337 4.9424 17.6187 C4.9424 17.7007 4.9395 17.7737 4.9327 17.8387 C4.9258 17.9017 4.9141 17.9547 4.9024 17.9997 C4.8887 18.0417 4.8672 18.0747 4.8438 18.0947 C4.8184 18.1147 4.7901 18.1247 4.7578 18.1247 C4.709 18.1247 4.6289 18.0927 4.5215 18.0307 C4.4151 17.9647 4.2842 17.8947 4.1299 17.8127 C3.9737 17.7337 3.792 17.6607 3.5791 17.5957 C3.3672 17.5287 3.1289 17.4957 2.8653 17.4957 C2.6182 17.4957 2.4034 17.5287 2.2217 17.5957 C2.0391 17.6607 1.8897 17.7497 1.7715 17.8597 C1.6524 17.9667 1.5635 18.0977 1.5049 18.2487 C1.4444 18.3987 1.4141 18.5577 1.4141 18.7277 C1.4141 18.9727 1.4727 19.1847 1.5869 19.3627 C1.7012 19.5397 1.8506 19.6987 2.042 19.8337 C2.2305 19.9707 2.4453 20.0977 2.6856 20.2087 C2.9287 20.3237 3.1739 20.4377 3.4258 20.5547 C3.6748 20.6707 3.9219 20.7997 4.1631 20.9377 C4.4053 21.0767 4.6202 21.2407 4.8086 21.4297 C4.9981 21.6177 5.1524 21.8427 5.2666 22.0987 C5.3828 22.3587 5.4414 22.6607 5.4414 23.0137 Z M11.6289 25.3307 C11.6289 25.3847 11.6104 25.4267 11.5733 25.4517 C11.5381 25.4807 11.4873 25.5007 11.4239 25.5147 C11.3584 25.5297 11.2657 25.5357 11.1436 25.5357 C11.0244 25.5357 10.9297 25.5297 10.8594 25.5147 C10.7891 25.5007 10.7383 25.4807 10.7051 25.4517 C10.6729 25.4267 10.6582 25.3847 10.6582 25.3307 L10.6582 24.7147 C10.3877 25.0017 10.0899 25.2257 9.7578 25.3847 C9.4287 25.5427 9.0791 25.6247 8.71 25.6247 C8.3858 25.6247 8.0918 25.5827 7.8311 25.4957 C7.5694 25.4117 7.3457 25.2907 7.1612 25.1327 C6.9766 24.9717 6.8321 24.7757 6.7295 24.5447 C6.6289 24.3117 6.5772 24.0477 6.5772 23.7507 C6.5772 23.4037 6.6475 23.1047 6.7881 22.8487 C6.9297 22.5937 7.1328 22.3817 7.3965 22.2137 C7.6602 22.0427 7.9844 21.9167 8.3672 21.8327 C8.75 21.7487 9.1817 21.7067 9.6602 21.7067 L10.5069 21.7067 L10.5069 21.2287 C10.5069 20.9917 10.4815 20.7817 10.4327 20.5987 C10.3809 20.4167 10.3018 20.2657 10.1895 20.1467 C10.0772 20.0257 9.9327 19.9337 9.7559 19.8707 C9.5782 19.8107 9.3594 19.7807 9.1006 19.7807 C8.8203 19.7807 8.5723 19.8127 8.3506 19.8777 C8.1289 19.9457 7.9356 20.0177 7.7705 20.0977 C7.6016 20.1767 7.4639 20.2487 7.3526 20.3167 C7.2403 20.3817 7.1582 20.4137 7.1026 20.4137 C7.0674 20.4137 7.0352 20.4057 7.0069 20.3887 C6.9786 20.3697 6.9561 20.3417 6.9346 20.3047 C6.9161 20.2697 6.8994 20.2227 6.8907 20.1647 C6.8809 20.1087 6.876 20.0457 6.876 19.9787 C6.876 19.8647 6.8858 19.7737 6.9024 19.7067 C6.918 19.6427 6.9561 19.5787 7.0186 19.5187 C7.0791 19.4597 7.1846 19.3907 7.336 19.3107 C7.4854 19.2317 7.6582 19.1587 7.8536 19.0917 C8.0498 19.0267 8.2647 18.9727 8.4981 18.9287 C8.7295 18.8837 8.9649 18.8637 9.2032 18.8637 C9.6436 18.8637 10.0196 18.9137 10.3291 19.0147 C10.6397 19.1157 10.8897 19.2617 11.0811 19.4547 C11.2725 19.6497 11.4121 19.8897 11.4981 20.1767 C11.585 20.4637 11.6289 20.7967 11.6289 21.1797 L11.6289 25.3307 Z M10.5069 22.5217 L9.543 22.5217 C9.2334 22.5217 8.9649 22.5467 8.7364 22.5987 C8.5098 22.6527 8.3203 22.7297 8.169 22.8317 C8.0196 22.9347 7.9073 23.0577 7.8379 23.2007 C7.7676 23.3447 7.7325 23.5087 7.7325 23.6957 C7.7325 24.0147 7.833 24.2697 8.0362 24.4577 C8.2393 24.6477 8.5235 24.7427 8.8877 24.7427 C9.1836 24.7427 9.4571 24.6677 9.711 24.5167 C9.9629 24.3667 10.2295 24.1357 10.5069 23.8257 L10.5069 22.5217 Z M18.1231 24.3857 C18.1231 24.4647 18.1202 24.5307 18.1162 24.5887 C18.1114 24.6447 18.1016 24.6947 18.0928 24.7317 C18.0811 24.7707 18.0674 24.8057 18.0508 24.8337 C18.0342 24.8647 17.9991 24.9087 17.9405 24.9637 C17.8848 25.0207 17.7871 25.0927 17.6514 25.1767 C17.5137 25.2607 17.3604 25.3347 17.1895 25.4017 C17.0196 25.4687 16.8321 25.5227 16.6319 25.5617 C16.4317 25.6037 16.2237 25.6247 16.0088 25.6247 C15.5684 25.6247 15.1758 25.5497 14.835 25.4057 C14.4922 25.2587 14.208 25.0457 13.9766 24.7667 C13.7452 24.4867 13.5703 24.1407 13.4493 23.7357 C13.3301 23.3257 13.2696 22.8557 13.2696 22.3237 C13.2696 21.7167 13.3418 21.1967 13.4912 20.7597 C13.6387 20.3257 13.8418 19.9687 14.1006 19.6917 C14.3575 19.4127 14.6602 19.2057 15.0078 19.0737 C15.3575 18.9377 15.7334 18.8697 16.1397 18.8697 C16.336 18.8697 16.5274 18.8887 16.711 18.9257 C16.8955 18.9607 17.0655 19.0097 17.2198 19.0687 C17.3741 19.1267 17.5137 19.1967 17.6328 19.2737 C17.7539 19.3507 17.8428 19.4157 17.8965 19.4717 C17.9522 19.5257 17.9903 19.5707 18.0088 19.6027 C18.0293 19.6327 18.0479 19.6697 18.0596 19.7147 C18.0743 19.7587 18.083 19.8057 18.0879 19.8617 C18.0928 19.9147 18.0948 19.9857 18.0948 20.0677 C18.0948 20.2437 18.0743 20.3677 18.0342 20.4377 C17.9922 20.5107 17.9434 20.5447 17.8828 20.5447 C17.8155 20.5447 17.7354 20.5077 17.6465 20.4337 C17.5586 20.3567 17.4463 20.2747 17.3086 20.1837 C17.1729 20.0927 17.0078 20.0087 16.8135 19.9337 C16.6202 19.8567 16.3916 19.8197 16.126 19.8197 C15.584 19.8197 15.169 20.0297 14.8799 20.4447 C14.5899 20.8627 14.4453 21.4667 14.4453 22.2597 C14.4453 22.6577 14.4825 23.0047 14.5577 23.3037 C14.6319 23.6017 14.7442 23.8517 14.8887 24.0517 C15.0362 24.2527 15.2129 24.4027 15.4258 24.4997 C15.6377 24.5977 15.8809 24.6477 16.1534 24.6477 C16.4131 24.6477 16.6407 24.6057 16.8369 24.5237 C17.0332 24.4427 17.2032 24.3507 17.3457 24.2527 C17.4903 24.1547 17.6123 24.0667 17.71 23.9877 C17.8077 23.9077 17.8828 23.8677 17.9385 23.8677 C17.9688 23.8677 17.9971 23.8767 18.0205 23.8937 C18.043 23.9117 18.0625 23.9427 18.0782 23.9877 C18.0948 24.0317 18.1045 24.0847 18.1114 24.1507 C18.1182 24.2177 18.1231 24.2947 18.1231 24.3857 Z M24.917 25.3247 C24.917 25.3597 24.9082 25.3917 24.8897 25.4147 C24.8711 25.4407 24.8428 25.4617 24.8008 25.4807 C24.7588 25.4987 24.7032 25.5127 24.6309 25.5227 C24.5557 25.5317 24.4649 25.5357 24.3575 25.5357 C24.2432 25.5357 24.1494 25.5317 24.0752 25.5227 C24.003 25.5127 23.9473 25.4987 23.9053 25.4807 C23.8653 25.4617 23.835 25.4407 23.8164 25.4147 C23.7979 25.3917 23.7881 25.3597 23.7881 25.3247 L23.7881 21.7217 C23.7881 21.3687 23.7627 21.0867 23.7061 20.8737 C23.6534 20.6587 23.5733 20.4757 23.4688 20.3197 C23.3633 20.1647 23.2286 20.0457 23.0606 19.9637 C22.8946 19.8827 22.7032 19.8407 22.4834 19.8407 C22.2012 19.8407 21.919 19.9407 21.6368 20.1417 C21.3526 20.3417 21.0557 20.6357 20.7481 21.0237 L20.7481 25.3247 C20.7481 25.3597 20.7383 25.3917 20.7198 25.4147 C20.7012 25.4407 20.6709 25.4617 20.6309 25.4807 C20.5889 25.4987 20.5332 25.5127 20.461 25.5227 C20.3868 25.5317 20.293 25.5357 20.1787 25.5357 C20.0713 25.5357 19.9805 25.5317 19.9053 25.5227 C19.833 25.5127 19.7744 25.4987 19.7325 25.4807 C19.6885 25.4617 19.6582 25.4407 19.6446 25.4147 C19.628 25.3917 19.6182 25.3597 19.6182 25.3247 L19.6182 16.1917 C19.6182 16.1547 19.628 16.1207 19.6446 16.0957 C19.6582 16.0677 19.6885 16.0437 19.7325 16.0257 C19.7744 16.0097 19.833 15.9947 19.9053 15.9867 C19.9805 15.9767 20.0713 15.9717 20.1787 15.9717 C20.293 15.9717 20.3868 15.9767 20.461 15.9867 C20.5332 15.9947 20.5889 16.0097 20.6309 16.0257 C20.6709 16.0437 20.7012 16.0677 20.7198 16.0957 C20.7383 16.1207 20.7481 16.1547 20.7481 16.1917 L20.7481 19.8757 C21.0703 19.5327 21.3965 19.2787 21.7256 19.1127 C22.0518 18.9477 22.3838 18.8637 22.7149 18.8637 C23.125 18.8637 23.4707 18.9327 23.751 19.0737 C24.0303 19.2107 24.2598 19.3977 24.4327 19.6277 C24.6045 19.8617 24.7286 20.1347 24.8028 20.4447 C24.8799 20.7577 24.917 21.1357 24.917 21.5767 L24.917 25.3247 Z M30.8369 23.6487 C30.8369 23.9637 30.7784 24.2427 30.6621 24.4887 C30.545 24.7367 30.3799 24.9437 30.1651 25.1117 C29.9522 25.2797 29.6963 25.4077 29.3994 25.4937 C29.1036 25.5807 28.7793 25.6247 28.4219 25.6247 C28.2051 25.6247 27.9952 25.6067 27.7969 25.5737 C27.5987 25.5377 27.4209 25.4937 27.2647 25.4427 C27.1065 25.3917 26.9727 25.3347 26.8633 25.2797 C26.7559 25.2207 26.6748 25.1697 26.625 25.1247 C26.5743 25.0787 26.5391 25.0157 26.5157 24.9337 C26.4922 24.8527 26.4805 24.7407 26.4805 24.5977 C26.4805 24.5117 26.4854 24.4397 26.4942 24.3787 C26.5039 24.3207 26.5157 24.2737 26.5293 24.2367 C26.544 24.1997 26.5625 24.1737 26.5879 24.1577 C26.6114 24.1407 26.6416 24.1337 26.6719 24.1337 C26.7237 24.1337 26.7979 24.1637 26.8965 24.2277 C26.9942 24.2877 27.1133 24.3557 27.2578 24.4277 C27.4004 24.4997 27.5703 24.5677 27.7666 24.6287 C27.9629 24.6917 28.1885 24.7217 28.4434 24.7217 C28.6338 24.7217 28.8067 24.7007 28.9629 24.6607 C29.1172 24.6187 29.253 24.5587 29.3672 24.4797 C29.4786 24.4007 29.5674 24.2967 29.628 24.1757 C29.6914 24.0517 29.7217 23.9057 29.7217 23.7377 C29.7217 23.5647 29.6778 23.4177 29.5889 23.3007 C29.5 23.1817 29.3809 23.0767 29.2364 22.9857 C29.0889 22.8947 28.9258 22.8137 28.7442 22.7427 C28.5616 22.6727 28.3731 22.5987 28.1797 22.5217 C27.9854 22.4427 27.7969 22.3557 27.6123 22.2577 C27.4278 22.1597 27.2627 22.0407 27.1182 21.8987 C26.9707 21.7557 26.8545 21.5877 26.7657 21.3927 C26.6768 21.1967 26.6328 20.9627 26.6328 20.6877 C26.6328 20.4477 26.6787 20.2167 26.7725 19.9947 C26.8653 19.7737 27.0059 19.5787 27.1924 19.4127 C27.3789 19.2477 27.6123 19.1157 27.8926 19.0147 C28.1729 18.9137 28.501 18.8637 28.875 18.8637 C29.0381 18.8637 29.2012 18.8767 29.3672 18.9057 C29.5303 18.9307 29.6778 18.9657 29.8106 19.0077 C29.9434 19.0467 30.0557 19.0917 30.1485 19.1407 C30.2422 19.1877 30.3125 19.2297 30.3614 19.2667 C30.4073 19.3037 30.4405 19.3337 30.4571 19.3627 C30.4727 19.3907 30.4844 19.4207 30.4912 19.4547 C30.4991 19.4887 30.503 19.5307 30.5098 19.5817 C30.5176 19.6307 30.5215 19.6937 30.5215 19.7657 C30.5215 19.8427 30.5176 19.9097 30.5098 19.9667 C30.503 20.0257 30.4942 20.0717 30.4776 20.1067 C30.461 20.1437 30.4424 20.1697 30.419 20.1857 C30.3955 20.2017 30.3702 20.2087 30.3448 20.2087 C30.3028 20.2087 30.2442 20.1857 30.1651 20.1347 C30.0879 20.0857 29.9873 20.0327 29.8662 19.9737 C29.7422 19.9177 29.5977 19.8647 29.4297 19.8127 C29.2647 19.7637 29.0752 19.7387 28.8604 19.7387 C28.669 19.7387 28.501 19.7587 28.3545 19.8037 C28.21 19.8477 28.0879 19.9087 27.9952 19.9877 C27.9014 20.0677 27.8321 20.1617 27.7823 20.2727 C27.7364 20.3817 27.7129 20.4987 27.7129 20.6267 C27.7129 20.8047 27.7569 20.9527 27.8477 21.0757 C27.9385 21.1967 28.0577 21.3007 28.2051 21.3927 C28.3496 21.4837 28.5157 21.5647 28.7022 21.6397 C28.8907 21.7117 29.0801 21.7857 29.2735 21.8637 C29.4678 21.9437 29.6582 22.0297 29.8477 22.1247 C30.0362 22.2207 30.2051 22.3347 30.3516 22.4727 C30.4961 22.6107 30.6133 22.7737 30.7012 22.9647 C30.7901 23.1567 30.8369 23.3847 30.8369 23.6487 Z M37.6993 21.9807 C37.6993 22.1577 37.6553 22.2857 37.5664 22.3607 C37.4776 22.4357 37.377 22.4727 37.2627 22.4727 L33.2286 22.4727 C33.2286 22.8157 33.2637 23.1207 33.3311 23.3967 C33.3994 23.6697 33.5137 23.9027 33.6739 24.0987 C33.833 24.2947 34.0401 24.4467 34.295 24.5517 C34.5518 24.6567 34.8623 24.7077 35.2334 24.7077 C35.5244 24.7077 35.7832 24.6847 36.0127 24.6357 C36.2383 24.5887 36.4366 24.5347 36.6026 24.4747 C36.7686 24.4157 36.9053 24.3627 37.0127 24.3157 C37.1202 24.2667 37.2002 24.2427 37.2559 24.2427 C37.2862 24.2427 37.3164 24.2507 37.3399 24.2667 C37.3653 24.2837 37.3838 24.3067 37.3985 24.3387 C37.4121 24.3717 37.4239 24.4157 37.4307 24.4727 C37.4356 24.5287 37.4405 24.5977 37.4405 24.6797 C37.4405 24.7407 37.4375 24.7917 37.4336 24.8337 C37.4287 24.8777 37.4239 24.9157 37.417 24.9507 C37.4102 24.9857 37.3985 25.0157 37.3819 25.0437 C37.3653 25.0697 37.3448 25.0977 37.3213 25.1207 C37.2959 25.1467 37.2207 25.1887 37.0967 25.2437 C36.9756 25.3007 36.8145 25.3567 36.6192 25.4117 C36.4229 25.4657 36.1963 25.5147 35.9405 25.5597 C35.6836 25.6017 35.4082 25.6247 35.1162 25.6247 C34.6104 25.6247 34.167 25.5527 33.7862 25.4117 C33.4063 25.2707 33.086 25.0607 32.8252 24.7827 C32.5655 24.5047 32.3702 24.1577 32.2373 23.7377 C32.1065 23.3177 32.0391 22.8287 32.0391 22.2747 C32.0391 21.7467 32.1084 21.2707 32.2442 20.8487 C32.3819 20.4287 32.5772 20.0697 32.8369 19.7757 C33.0928 19.4817 33.4034 19.2577 33.7705 19.0987 C34.1338 18.9427 34.542 18.8637 34.9922 18.8637 C35.4756 18.8637 35.8858 18.9397 36.2266 19.0967 C36.5655 19.2497 36.8448 19.4597 37.0645 19.7217 C37.2842 19.9837 37.4424 20.2907 37.545 20.6437 C37.6475 20.9977 37.6993 21.3727 37.6993 21.7747 L37.6993 21.9807 Z M36.5655 21.6467 C36.5791 21.0537 36.4483 20.5867 36.1709 20.2507 C35.8955 19.9127 35.4873 19.7447 34.9463 19.7447 C34.6661 19.7447 34.4229 19.7987 34.2129 19.9037 C34.003 20.0057 33.8282 20.1467 33.6885 20.3197 C33.5459 20.4917 33.4366 20.6947 33.3594 20.9227 C33.2823 21.1547 33.2383 21.3947 33.2286 21.6467 L36.5655 21.6467 Z M44.7129 25.3247 C44.7129 25.3597 44.7041 25.3917 44.6856 25.4147 C44.6661 25.4407 44.6387 25.4617 44.5967 25.4807 C44.5547 25.4987 44.4991 25.5127 44.4268 25.5227 C44.3516 25.5317 44.2608 25.5357 44.1534 25.5357 C44.0391 25.5357 43.9453 25.5317 43.8711 25.5227 C43.7989 25.5127 43.7422 25.4987 43.7002 25.4807 C43.6612 25.4617 43.6309 25.4407 43.6123 25.4147 C43.5928 25.3917 43.584 25.3597 43.584 25.3247 L43.584 21.7217 C43.584 21.3687 43.5577 21.0867 43.502 20.8737 C43.4483 20.6587 43.3692 20.4757 43.2637 20.3197 C43.1592 20.1647 43.0244 20.0457 42.8555 19.9637 C42.6905 19.8827 42.4991 19.8407 42.2793 19.8407 C41.9971 19.8407 41.7149 19.9407 41.4327 20.1417 C41.1485 20.3417 40.8516 20.6357 40.544 21.0237 L40.544 25.3247 C40.544 25.3597 40.5342 25.3917 40.5157 25.4147 C40.4971 25.4407 40.4668 25.4617 40.4268 25.4807 C40.3848 25.4987 40.3291 25.5127 40.2569 25.5227 C40.1817 25.5317 40.0889 25.5357 39.9746 25.5357 C39.8672 25.5357 39.7754 25.5317 39.7012 25.5227 C39.6289 25.5127 39.5703 25.4987 39.5284 25.4807 C39.4844 25.4617 39.4541 25.4407 39.4395 25.4147 C39.4239 25.3917 39.4141 25.3597 39.4141 25.3247 L39.4141 19.1707 C39.4141 19.1337 39.4209 19.1037 39.4356 19.0767 C39.4493 19.0547 39.4776 19.0317 39.5166 19.0097 C39.5586 18.9897 39.6104 18.9777 39.6758 18.9697 C39.7383 18.9627 39.8223 18.9587 39.9278 18.9587 C40.0274 18.9587 40.1123 18.9627 40.1768 18.9697 C40.2422 18.9777 40.294 18.9897 40.3311 19.0097 C40.3662 19.0317 40.3946 19.0547 40.4102 19.0767 C40.4248 19.1037 40.4336 19.1337 40.4336 19.1707 L40.4336 19.9857 C40.7793 19.5977 41.125 19.3137 41.4698 19.1337 C41.8125 18.9537 42.1602 18.8637 42.5108 18.8637 C42.9209 18.8637 43.2666 18.9327 43.5469 19.0737 C43.8262 19.2107 44.0557 19.3977 44.2276 19.6277 C44.4004 19.8617 44.5244 20.1347 44.5987 20.4447 C44.6758 20.7577 44.7129 21.1337 44.7129 21.5697 L44.7129 25.3247 Z" transform="translate(20.3027, 90.4873)"/>
   <path style="fill:#008f33; fill-rule:evenodd;stroke:none;" d="M5.5176 43.5498 C9.7773 46.6162 21.585 45.6367 21.5205 55.1631 C21.4561 64.6894 17.1533 70.5459 15.79 71.6943 C14.4277 72.8428 42.999 69.1416 50.0898 70.6719 C57.1807 72.2021 36.9981 59.749 45.8936 55.0078 C54.7881 50.2676 61.9395 48.875 62.6758 42.0478 C63.1582 37.5801 62.7637 31.0615 56.1963 27.6982 C50.9219 24.9951 40.8496 35.9629 38.5713 38.8242 C35.9238 42.1484 32.1055 1.56836 29.001 0.756836 C26.1074 0 26.21 36.2051 22.7334 41.2373 C21.1436 43.54 15.625 26 13.3906 25.5957 C9.7744 24.9434 0 39.5781 5.5176 43.5498 Z" transform="translate(13.9082, -0.287109)"/>
   <path style="fill:#001015; fill-rule:nonzero;stroke:#001015; stroke-width:0.25002; stroke-linecap:butt; stroke-linejoin:miter; stroke-dasharray:none;" d="M0.81543 19.3164 C0.27148 18.2207 0 16.9024 0 15.3623 C0.01367 13.8262 0.3291 12.1729 0.96875 10.4238 C1.5957 8.6709 2.52445 6.9102 3.73335 5.1416 C4.95505 3.377 6.49605 1.6621 8.39255 0 L10.6739 2.4844 C10.2343 2.8115 9.84475 3.125 9.48045 3.4258 C9.12015 3.7354 8.72075 4.1191 8.28615 4.5645 C7.54495 5.3145 6.85445 6.1484 6.20015 7.0742 C4.92965 8.8516 4.08005 10.6397 3.64165 12.419 C3.20705 14.208 3.29495 15.7266 3.91215 16.9717 C4.47855 17.8486 5.17675 18.5068 6.01565 18.9424 C6.84575 19.3828 8.18355 19.6797 10.0352 19.8213 C13.3212 19.9277 15.8417 20.0752 17.5917 20.2988 C19.0528 20.4043 20.3604 20.7715 21.496 21.3877 C22.6318 22.0039 23.5312 22.9775 24.1826 24.293 C24.9746 25.8887 25.2929 27.6094 25.1347 29.4688 C24.9755 31.3281 24.4716 33.1729 23.6123 35.0088 C23.2286 35.8213 22.7675 36.6514 22.2354 37.5166 C21.7031 38.3818 21.0703 39.2852 20.3536 40.2422 C19.2207 41.6563 17.8632 43.083 16.2792 44.5361 L14.0371 42.2842 C15.5283 41.041 16.9599 39.5664 18.3174 37.877 C19.6748 36.1875 20.6953 34.3701 21.3623 32.4111 C22.0419 30.457 21.9639 28.6494 21.1377 26.9834 C20.6719 26.0459 20.0009 25.3086 19.1181 24.7852 C18.2403 24.2705 17.2695 23.9004 16.2109 23.7041 C15.7695 23.6289 15.2754 23.5566 14.7325 23.499 C14.1855 23.4316 13.5948 23.3857 12.9296 23.3438 L9.54785 23.1768 C7.44725 23.0606 5.67575 22.7705 4.24215 22.2803 C3.52445 22.0469 2.86035 21.6768 2.25785 21.1895 C1.62988 20.6055 1.14551 19.9824 0.81543 19.3164 Z" transform="translate(8.07715, 26.6289)"/>
   <path style="fill:#001015; fill-rule:nonzero;stroke:#001015; stroke-width:0.25002; stroke-linecap:butt; stroke-linejoin:miter; stroke-dasharray:none;" d="M0 1.416 L2.6826 0 L5.5137 6.6464 L8.457 13.3603 L11.7061 20.4687 L15.2158 28.039 L18.8223 20.5283 L23.5391 10.9384 L26.542 4.8212 L28.8516 0.0146 L31.3399 1.416 L26.9512 9.7763 L23.084 17.2793 L19.3438 24.6337 L14.9697 33.5752 L14.8584 33.5683 L11.2666 25.8408 L7.5781 17.8681 L2.832 7.541 L0 1.416 Z" transform="translate(26.5703, 16.5684)"/>
   <path style="fill:#001015; fill-rule:nonzero;stroke:#001015; stroke-width:0.25002; stroke-linecap:butt; stroke-linejoin:miter; stroke-dasharray:none;" d="M24.4775 19.3164 C25.0214 18.2207 25.2939 16.9024 25.2929 15.3623 C25.2802 13.8262 24.9638 12.1729 24.3242 10.4238 C23.6972 8.6709 22.7685 6.9102 21.5595 5.1416 C20.3378 3.377 18.7968 1.6621 16.9013 0 L14.6191 2.4844 C15.0585 2.8115 15.4492 3.125 15.8125 3.4258 C16.1728 3.7354 16.5722 4.1191 17.0068 4.5645 C17.748 5.3145 18.4384 6.1484 19.0927 7.0742 C20.3632 8.8516 21.2128 10.6397 21.6513 12.419 C22.0859 14.208 21.999 15.7266 21.3808 16.9717 C20.8144 17.8486 20.1162 18.5068 19.2773 18.9424 C18.4472 19.3828 17.1093 19.6797 15.2587 19.8213 C11.9716 19.9277 9.4521 20.0752 7.7021 20.2988 C6.2402 20.4043 4.9326 20.7715 3.7968 21.3877 C2.6611 22.0039 1.7626 22.9775 1.1103 24.293 C0.3183 25.8887 0 27.6094 0.1582 29.4688 C0.3173 31.3281 0.8222 33.1729 1.6806 35.0088 C2.0644 35.8213 2.5263 36.6514 3.0585 37.5166 C3.5898 38.3818 4.2236 39.2852 4.9394 40.2422 C6.0732 41.6563 7.4296 43.083 9.0136 44.5361 L11.2558 42.2842 C9.7646 41.041 8.333 39.5664 6.9755 37.877 C5.6191 36.1875 4.5976 34.3701 3.9316 32.4111 C3.2509 30.457 3.3291 28.6494 4.1552 26.9834 C4.621 26.0459 5.2929 25.3086 6.1748 24.7852 C7.0527 24.2705 8.0234 23.9004 9.082 23.7041 C9.5234 23.6289 10.0185 23.5566 10.5605 23.499 C11.1074 23.4316 11.6982 23.3857 12.3632 23.3438 L15.746 23.1768 C17.8457 23.0606 19.6171 22.7705 21.0517 22.2803 C21.7685 22.0469 22.4326 21.6768 23.0351 21.1895 C23.663 20.6055 24.1474 19.9824 24.4775 19.3164 Z" transform="translate(51.1104, 26.6289)"/>
   <path style="fill:#008f33; fill-rule:nonzero;stroke:none;" d="M60.4375 0.1455 L60.4375 3.9512 L21.8262 3.835 L0 3.9512 L0 0 L21.1065 1.0909 L60.4375 0.1455 Z" transform="translate(12.2412, 77.4941)"/>
  </g>
 </g>
</svg>
